<svg width="96" height="102" viewBox="0 0 96 102" fill="none" xmlns="http://www.w3.org/2000/svg">
<g clip-path="url(#clip0_6373_2)">
<path d="M41.9262 51.0576C40.2114 51.4196 38.4965 51.7817 36.2329 52.2596C37.8713 43.7095 41.4569 36.8636 46.4181 30.729C55.8904 19.0167 67.445 9.78098 80.5805 2.47012C81.4179 2.00407 82.1182 1.29191 82.9411 0.347123C83.4443 2.98023e-08 83.8888 0 84.6666 0C84.8229 9.41194 82.2906 18.1991 77.7035 26.8914C77.1847 27.4032 77.0259 27.6092 76.577 27.9193C69.9881 30.509 63.5661 32.6477 57.6429 35.7417C51.0575 39.1816 45.1181 43.687 41.9244 50.8931C41.8446 50.8877 41.9262 51.0576 41.9262 51.0576Z" fill="#FBFBFA"/>
<path d="M2.03117 23.9766C2.46701 23.9771 2.90285 23.9777 3.9983 24.0839C6.34074 24.7765 7.98293 25.6629 9.71354 25.8978C16.6698 26.8419 21.7782 30.7376 26.2383 35.7813C29.0662 43.0997 32.336 50.2842 34.6058 57.7719C37.2084 66.3577 41.63 73.296 49.5795 78.1842C49.9676 78.2018 49.9189 78.1145 50.0505 78.4853C51.6255 79.5897 53.069 80.3234 54.504 81.0512C54.4956 81.0454 54.4567 81.0511 54.4567 81.0511C48.1964 82.1963 43.0409 79.1642 38.101 76.216C25.0837 68.447 18.4544 56.4514 15.9617 41.7526C14.7226 34.4461 9.66771 29.8765 3.51601 26.3496C2.85195 25.9689 2.29665 25.3984 1.7583 24.6045C1.8257 24.293 2.03117 23.9766 2.03117 23.9766Z" fill="#F9F8F8"/>
<path d="M54.8562 81.1239C54.4566 81.0504 54.4955 81.0447 54.3135 80.7064C52.7273 79.6166 51.323 78.8652 49.9188 78.1138C49.9188 78.1138 49.9675 78.2012 49.9269 78.2299C49.131 76.8741 48.5366 75.3662 47.5888 74.129C45.1515 70.9473 42.5574 67.8856 40.3726 64.4629C48.1767 66.7585 55.6343 69.3673 63.0918 71.976C64.645 72.4251 66.1982 72.8742 67.9432 73.9599C71.2466 78.9922 74.3582 83.3879 77.4698 87.7837C70.0651 85.5883 62.6605 83.3929 54.8562 81.1239Z" fill="#EB8828"/>
<path d="M76.964 27.8897C77.0261 27.6092 77.1848 27.4031 77.6383 27.2617C80.2288 26.8106 82.6211 26.3695 85.1864 25.8965C82.192 40.0741 65.7724 55.7185 42.2876 51.2095C41.9263 51.0575 41.8447 50.8876 42.3159 50.9345C57.357 47.9873 68.941 40.5739 76.964 27.8897Z" fill="#F0AC29"/>
<path d="M62.9918 71.6411C55.6344 69.3687 48.1768 66.76 40.3629 64.1093C39.0367 61.1665 38.0669 58.2658 37.0977 55.3668C46.9544 52.4972 55.3291 57.8549 62.9918 71.6411Z" fill="#F0AD29"/>
<path d="M77.7554 87.9257C74.3588 83.3894 71.2472 78.9936 68.1299 74.2539C79.0068 76.9621 87.7689 82.7805 92.7482 93.5032C87.7876 92.0916 83.1885 90.2391 78.5895 88.3865C78.4065 88.2797 78.2235 88.173 77.7554 87.9257Z" fill="#FCF8F2"/>
<path d="M26.4411 35.8535C21.7784 30.7373 16.6699 26.8416 9.71365 25.8975C7.98304 25.6627 6.34085 24.7762 4.31836 24.0136C9.59401 17.2861 23.3245 19.8863 26.8834 28.1889C27.3366 29.2461 27.6623 30.3579 28.1285 32.1826C27.9697 33.922 27.7294 34.9232 27.4892 35.9245L27.0664 35.8453C27.0664 35.8453 26.6439 35.9259 26.4411 35.8535Z" fill="#EDAC2E"/>
<path d="M78.6729 88.6445C83.1883 90.2392 87.7874 92.0918 92.7539 93.8613C93.957 96.1899 94.7925 98.6015 95.5515 101.356C94.8454 101.79 94.2159 101.882 93.2663 101.915C88.2164 97.5382 83.4864 93.2203 78.6729 88.6445Z" fill="#E8AB34"/>
<path d="M27.7765 35.7612C27.7292 34.9234 27.9695 33.9222 28.2588 32.543C28.2265 33.3092 28.1453 34.4535 27.7765 35.7612Z" fill="#750A44"/>
<path d="M1.962 23.7285C2.03118 23.9774 1.82571 24.2939 1.63834 24.3203C1.2414 23.8125 1.03183 23.2783 0.822266 22.7441C1.17912 22.9892 1.53596 23.2343 1.962 23.7285Z" fill="#750A44"/>
<path d="M76.577 27.9199C68.9409 40.5745 57.3568 47.9879 42.3955 50.9406C45.118 43.6877 51.0575 39.1822 57.6429 35.7423C63.566 32.6483 69.9881 30.5096 76.577 27.9199Z" fill="#EB7F28"/>
<path d="M50.0508 78.4863C51.3234 78.867 52.7277 79.6184 54.3223 80.7139C53.0693 80.3244 51.6258 79.5908 50.0508 78.4863Z" fill="#750A44"/>
</g>
<defs>
<clipPath id="clip0_6373_2">
<rect width="96" height="102" fill="white"/>
</clipPath>
</defs>
</svg>
